<?xml version="1.0" standalone="no"?>
<!DOCTYPE svg PUBLIC "-//W3C//DTD SVG 20010904//EN"
 "http://www.w3.org/TR/2001/REC-SVG-20010904/DTD/svg10.dtd">
<svg version="1.0" xmlns="http://www.w3.org/2000/svg"
 width="448.000000pt" height="448.000000pt" viewBox="0 0 448.000000 448.000000"
 preserveAspectRatio="xMidYMid meet">
<metadata>
Created by potrace 1.11, written by Peter Selinger 2001-2013
</metadata>
<g transform="translate(0.000000,448.000000) scale(0.100000,-0.100000)"
fill="#000000" stroke="none">
<path d="M0 4400 c0 -44 4 -80 9 -80 5 0 16 11 25 25 l17 25 37 -31 c35 -29
249 -158 264 -159 4 0 -10 37 -31 83 -21 45 -48 112 -60 150 l-23 67 -119 0
-119 0 0 -80z"/>
<path d="M326 4410 c13 -39 45 -117 72 -173 37 -79 60 -112 98 -146 46 -41 47
-43 19 -37 -91 22 -245 97 -384 188 -41 26 -76 48 -79 48 -3 0 -2 -94 1 -210
6 -201 8 -212 37 -287 136 -354 411 -533 818 -533 67 0 122 -4 122 -8 0 -5 -7
-31 -15 -58 -28 -97 -65 -305 -85 -480 -12 -99 -28 -240 -36 -314 -23 -200
-14 -621 15 -743 50 -207 120 -352 225 -464 202 -217 465 -310 921 -326 l70
-2 21 -85 c12 -47 25 -108 29 -136 l7 -51 -114 -32 c-62 -17 -239 -60 -393
-96 -449 -106 -724 -174 -805 -199 -41 -13 -94 -27 -118 -30 -47 -7 -236 -88
-264 -113 -19 -17 -68 -99 -68 -114 0 -5 41 -9 91 -9 83 0 91 2 84 18 -4 9 -9
32 -12 50 -5 31 -4 33 58 61 39 17 113 37 189 50 104 19 500 114 617 150 18 5
35 6 37 3 2 -4 0 -45 -5 -92 -5 -47 -6 -120 -3 -163 l7 -77 34 0 c30 0 34 3
28 17 -12 27 -17 201 -8 267 7 55 11 61 41 73 l33 13 -3 -137 c-2 -76 1 -159
5 -185 8 -47 9 -48 44 -48 32 0 35 2 28 23 -11 34 -18 249 -11 310 l7 54 186
48 c250 63 371 103 384 126 10 20 -18 178 -46 259 -8 23 -15 44 -15 46 0 2 21
4 48 4 51 0 211 14 357 31 128 15 318 54 401 83 l72 24 -5 -101 c-6 -129 7
-230 38 -281 44 -71 122 -146 221 -213 l98 -67 0 -46 c0 -55 -24 -130 -71
-220 -19 -36 -35 -68 -37 -73 -2 -4 21 -7 52 -7 40 0 56 4 56 13 0 7 9 32 20
54 16 34 39 101 66 192 7 23 49 -12 52 -45 3 -32 -49 -167 -75 -196 -15 -17
-14 -18 18 -18 34 1 34 1 63 90 37 113 40 119 63 103 10 -7 79 -47 153 -89 74
-43 140 -84 146 -91 9 -10 36 -13 110 -11 l99 3 -55 28 c-153 79 -408 227
-455 264 -16 13 -61 45 -100 70 -96 63 -241 180 -297 241 -25 27 -52 67 -58
88 -7 22 -15 110 -17 196 -5 147 -4 158 13 164 11 4 56 24 101 44 131 61 203
140 319 350 72 132 79 140 120 140 47 0 205 53 291 98 160 82 276 195 351 341
101 196 113 370 37 528 -59 120 -185 213 -290 213 -19 0 -35 2 -35 5 0 3 16
27 35 54 83 115 176 344 217 535 18 82 22 134 22 276 1 245 -21 339 -157 682
l-62 158 -1906 0 -1906 0 23 -70z m1814 -986 c0 -4 -16 -24 -35 -45 -44 -49
-101 -162 -122 -242 -26 -99 -20 -377 8 -377 5 0 9 7 9 16 0 9 6 14 13 11 8
-3 32 16 55 43 51 59 260 211 362 263 152 77 398 129 619 131 l123 1 39 -45
c21 -25 67 -83 100 -130 l62 -85 -66 63 c-107 101 -242 151 -372 138 -93 -10
-175 -28 -188 -40 -7 -7 -39 -27 -71 -46 -136 -77 -265 -233 -323 -391 -37
-100 -44 -130 -50 -230 -18 -300 188 -504 492 -486 106 6 206 30 255 61 229
146 329 253 385 414 15 42 31 84 35 93 5 9 12 33 15 53 35 184 54 -271 22
-519 -27 -208 -138 -480 -256 -624 -46 -57 -180 -157 -229 -171 -125 -36 -570
-57 -660 -31 -43 12 -43 12 -35 49 17 89 0 155 -63 238 -94 123 -396 214 -616
186 -120 -15 -225 -65 -272 -130 -27 -38 -31 -52 -31 -108 0 -75 1 -75 -109
-45 -85 24 -108 40 -172 125 -68 89 -101 158 -113 237 -16 95 -13 395 4 565
30 286 97 710 135 854 l9 35 123 18 c68 9 137 19 153 22 l30 5 -25 -12 c-30
-16 -129 -118 -165 -172 -121 -180 -180 -528 -125 -741 63 -246 254 -340 425
-209 49 37 50 37 34 -20 -15 -55 2 -69 41 -31 20 19 38 54 54 104 13 42 46
132 74 201 78 196 77 191 75 345 0 108 -5 158 -22 218 -50 190 -132 293 -256
323 -26 6 -20 9 45 21 627 114 580 107 580 97z m-673 -120 c-3 -3 -12 -4 -19
-1 -8 3 -5 6 6 6 11 1 17 -2 13 -5z m119 -79 c65 -42 134 -165 159 -282 15
-68 20 -153 10 -153 -3 0 -41 20 -83 44 -169 98 -309 146 -424 146 -32 0 -58
2 -58 4 0 19 82 139 118 175 83 80 209 110 278 66z m1582 -161 c117 -66 191
-163 227 -300 15 -56 20 -114 10 -114 -2 0 -71 23 -152 50 -256 87 -427 125
-618 137 -55 3 -106 9 -114 13 -11 6 -2 21 39 64 104 110 225 169 380 186 107
11 156 3 228 -36z m-1808 -166 c73 -17 129 -39 245 -98 l150 -77 -2 -36 c-3
-43 -42 -126 -43 -91 -1 52 -50 134 -98 166 -35 23 -115 23 -167 -1 -99 -45
-175 -191 -175 -336 0 -57 5 -79 28 -120 31 -57 78 -93 135 -102 39 -6 39 -6
16 -18 -77 -40 -190 -16 -250 52 -113 129 -129 377 -43 644 l15 46 47 -4 c26
-2 90 -14 142 -25z m1335 -129 c159 -19 284 -49 484 -115 108 -35 203 -68 211
-73 12 -9 13 -17 2 -58 -7 -26 -22 -66 -32 -89 -11 -22 -20 -48 -20 -57 0 -9
-3 -17 -7 -17 -5 0 -6 24 -5 54 4 62 -13 103 -62 148 -54 51 -104 71 -187 76
-158 9 -287 -42 -375 -149 -109 -133 -110 -279 -1 -359 47 -34 150 -70 206
-71 33 0 34 -1 12 -10 -92 -37 -248 -30 -348 16 -178 81 -253 279 -193 505 23
84 61 182 80 206 12 13 84 11 235 -7z m1492 -91 c55 -26 118 -95 151 -166 24
-52 27 -68 27 -172 -1 -93 -5 -127 -24 -180 -63 -182 -198 -333 -380 -424 -44
-23 -249 -96 -267 -96 -12 0 10 68 41 130 78 156 104 353 85 639 -13 187 -12
188 68 245 78 56 208 66 299 24z m-2608 -89 c31 -31 37 -51 32 -124 -9 -135
-168 -187 -201 -66 -18 69 5 137 65 190 45 39 65 39 104 0z m1528 -129 c50
-30 66 -62 61 -121 -9 -86 -91 -148 -196 -149 -49 0 -58 4 -89 35 -33 33 -35
39 -31 84 6 62 36 104 101 141 61 35 109 38 154 10z m-1182 -945 c43 -9 99
-24 124 -34 46 -17 46 -17 45 -61 -2 -73 -31 -239 -44 -255 -25 -30 -268 -10
-377 31 -57 21 -76 64 -103 232 -11 67 -10 75 6 94 18 19 26 20 145 15 69 -4
161 -13 204 -22z"/>
<path d="M1499 2565 c-56 -30 -80 -152 -39 -190 19 -18 22 -18 56 -2 25 12 41
30 55 63 22 48 20 80 -7 122 -17 25 -29 27 -65 7z"/>
<path d="M2995 2427 c-75 -30 -105 -66 -105 -130 0 -61 55 -86 137 -62 86 26
130 94 98 154 -24 48 -70 61 -130 38z"/>
<path d="M4199 4433 c10 -27 44 -113 76 -192 92 -233 116 -342 122 -552 6
-194 -6 -293 -53 -456 -31 -108 -103 -279 -148 -352 l-34 -54 57 -28 c73 -37
181 -146 226 -229 l35 -65 0 988 0 987 -150 0 -150 0 19 -47z"/>
<path d="M0 1916 l0 -1916 174 0 173 0 31 58 c46 87 110 140 226 191 54 24
117 45 140 48 22 3 72 16 110 29 73 26 165 49 796 199 503 120 456 105 453
146 -2 19 -8 55 -14 81 l-11 46 -106 6 c-296 17 -533 85 -701 198 -75 51 -219
197 -274 278 -89 132 -156 332 -179 535 -13 125 -4 498 17 650 8 61 22 178 30
260 14 133 64 413 80 457 6 15 -5 17 -92 17 -164 0 -335 49 -464 133 -79 50
-202 172 -258 256 -44 65 -111 197 -111 219 0 6 -4 15 -10 18 -7 4 -10 -635
-10 -1909z"/>
<path d="M4464 2143 c-61 -187 -220 -377 -416 -495 -73 -45 -197 -94 -291
-116 l-68 -17 -57 -99 c-107 -189 -213 -304 -345 -372 l-76 -39 3 -125 c6
-167 21 -214 88 -275 75 -67 248 -196 283 -211 17 -7 39 -22 49 -33 22 -24
172 -113 351 -209 72 -38 151 -88 176 -111 l46 -41 136 0 137 0 0 1080 c0 594
-2 1080 -5 1080 -3 0 -8 -8 -11 -17z"/>
</g>
</svg>
